<svg width="694" height="259" fill="none" xmlns="http://www.w3.org/2000/svg"><g clip-path="url(#a)"><path d="M64.517 163.72c0-9.707 2.1-18.34 6.3-25.9 4.2-7.653 10.033-13.58 17.5-17.78 7.56-4.293 16.1-6.44 25.62-6.44 11.667 0 21.653 3.08 29.96 9.24 8.307 6.16 13.86 14.56 16.66 25.2h-26.32c-1.96-4.107-4.76-7.233-8.4-9.38-3.547-2.147-7.607-3.22-12.18-3.22-7.373 0-13.347 2.567-17.92 7.7-4.573 5.133-6.86 11.993-6.86 20.58 0 8.587 2.287 15.447 6.86 20.58 4.573 5.133 10.547 7.7 17.92 7.7 4.573 0 8.633-1.073 12.18-3.22 3.64-2.147 6.44-5.273 8.4-9.38h26.32c-2.8 10.64-8.353 19.04-16.66 25.2-8.307 6.067-18.293 9.1-29.96 9.1-9.52 0-18.06-2.1-25.62-6.3-7.467-4.293-13.3-10.22-17.5-17.78-4.2-7.56-6.3-16.193-6.3-25.9Zm168.381 50.26c-9.24 0-17.734-2.147-25.48-6.44-7.654-4.293-13.767-10.267-18.34-17.92-4.48-7.747-6.72-16.427-6.72-26.04s2.24-18.247 6.72-25.9c4.573-7.653 10.686-13.627 18.34-17.92 7.746-4.293 16.24-6.44 25.48-6.44 9.24 0 17.686 2.147 25.34 6.44 7.746 4.293 13.813 10.267 18.2 17.92 4.48 7.653 6.72 16.287 6.72 25.9s-2.24 18.293-6.72 26.04c-4.48 7.653-10.547 13.627-18.2 17.92-7.654 4.293-16.1 6.44-25.34 6.44Zm0-21.84c7.84 0 14.093-2.613 18.76-7.84 4.76-5.227 7.14-12.133 7.14-20.72 0-8.68-2.38-15.587-7.14-20.72-4.667-5.227-10.92-7.84-18.76-7.84-7.934 0-14.28 2.567-19.04 7.7-4.667 5.133-7 12.087-7 20.86 0 8.68 2.333 15.633 7 20.86 4.76 5.133 11.106 7.7 19.04 7.7Zm110.338 21.84c-7.187 0-13.627-1.167-19.32-3.5s-10.267-5.787-13.72-10.36c-3.36-4.573-5.133-10.08-5.32-16.52h25.48c.373 3.64 1.633 6.44 3.78 8.4 2.147 1.867 4.947 2.8 8.4 2.8 3.547 0 6.347-.793 8.4-2.38 2.053-1.68 3.08-3.967 3.08-6.86 0-2.427-.84-4.433-2.52-6.02-1.587-1.587-3.593-2.893-6.02-3.92-2.333-1.027-5.693-2.193-10.08-3.5-6.347-1.96-11.527-3.92-15.54-5.88s-7.467-4.853-10.36-8.68-4.34-8.82-4.34-14.98c0-9.147 3.313-16.287 9.94-21.42 6.627-5.227 15.26-7.84 25.9-7.84 10.827 0 19.553 2.613 26.18 7.84 6.627 5.133 10.173 12.32 10.64 21.56h-25.9c-.187-3.173-1.353-5.647-3.5-7.42-2.147-1.867-4.9-2.8-8.26-2.8-2.893 0-5.227.793-7 2.38-1.773 1.493-2.66 3.687-2.66 6.58 0 3.173 1.493 5.647 4.48 7.42 2.987 1.773 7.653 3.687 14 5.74 6.347 2.147 11.48 4.2 15.4 6.16 4.013 1.96 7.467 4.807 10.36 8.54 2.893 3.733 4.34 8.54 4.34 14.42 0 5.6-1.447 10.687-4.34 15.26-2.8 4.573-6.907 8.213-12.32 10.92-5.413 2.707-11.807 4.06-19.18 4.06Zm173.073-99.26V213h-23.94v-58.94L470.389 213h-19.32l-22.12-59.08V213h-23.94v-98.28h28.28l27.58 68.04 27.3-68.04h28.14Zm74.896 99.26c-9.24 0-17.734-2.147-25.48-6.44-7.654-4.293-13.767-10.267-18.34-17.92-4.48-7.747-6.72-16.427-6.72-26.04s2.24-18.247 6.72-25.9c4.573-7.653 10.686-13.627 18.34-17.92 7.746-4.293 16.24-6.44 25.48-6.44 9.24 0 17.686 2.147 25.34 6.44 7.746 4.293 13.813 10.267 18.2 17.92 4.48 7.653 6.72 16.287 6.72 25.9s-2.24 18.293-6.72 26.04c-4.48 7.653-10.547 13.627-18.2 17.92-7.654 4.293-16.1 6.44-25.34 6.44Zm0-21.84c7.84 0 14.093-2.613 18.76-7.84 4.76-5.227 7.14-12.133 7.14-20.72 0-8.68-2.38-15.587-7.14-20.72-4.667-5.227-10.92-7.84-18.76-7.84-7.934 0-14.28 2.567-19.04 7.7-4.667 5.133-7 12.087-7 20.86 0 8.68 2.333 15.633 7 20.86 4.76 5.133 11.106 7.7 19.04 7.7Z" fill="url(#b)"/><path d="M270.525 46.88V89h-10.26V71.66h-15.96V89h-10.26V46.88h10.26v16.5h15.96v-16.5h10.26Zm20.967 0V89h-10.26V46.88h10.26Zm21.775 32.64-6.66 17.22h-6.54l3.48-17.22h9.72Zm35.761-32.64V89h-10.26V46.88h10.26Zm52.971 34.68h-15.72l-2.52 7.44h-10.74l15.24-42.12h11.88L415.379 89h-10.86l-2.52-7.44Zm-2.64-7.92-5.22-15.42-5.16 15.42h10.38Zm71.658-26.76V89h-10.26V63.74L451.337 89h-8.28l-9.48-25.32V89h-10.26V46.88h12.12l11.82 29.16 11.7-29.16h12.06Z" fill="url(#c)"/></g><defs><linearGradient id="b" x1="574.286" y1="163.5" x2="110.501" y2="163.5" gradientUnits="userSpaceOnUse"><stop stop-color="#3763FF"/><stop offset="1" stop-color="#7B3DFF"/></linearGradient><linearGradient id="c" x1="449.5" y1="68.236" x2="127" y2="68.236" gradientUnits="userSpaceOnUse"><stop stop-color="#3C60FF"/><stop offset="1" stop-color="#7939FF"/></linearGradient><clipPath id="a"><path fill="#fff" d="M0 0h694v259H0z"/></clipPath></defs></svg>